<svg xmlns="http://www.w3.org/2000/svg" width="40" height="40" viewBox="0 0 40 40">
    <g fill="none" fill-rule="evenodd">
        <path fill="#BF64FF" d="M34.137 30.482c-.344-.34-.514-.89-.514-1.638V10.366A6.366 6.366 0 0 0 27.256 4v25.554c0 2.465.647 4.283 1.943 5.454 1.295 1.171 3.33 1.756 6.11 1.756h4.557v-.425c0-2.051-.492-5.342-4.09-5.342-.896 0-1.296-.17-1.639-.516"/>
        <path fill="#30DDEF" d="M15.911 7.03L.817 24.342C0 25.263-.24 27.173.262 28.296.767 29.42 1.864 30.4 3.095 30.4H17.12l.072 6.426 6.253-.06-.132-9.55a3.127 3.127 0 0 0-3.126-3.07H9.374l9.795-11.38c2.11-1.939 4.277-1.203 4.277-1.203v-7.46C19.57 3.342 15.91 7.03 15.91 7.03"/>
        <path fill="#119BCC" d="M15.911 7.03L9.78 14.063c-.457.524-.918 1.052-1.374 1.577l-.136.155-1.18 1.354-1.024 1.175-1.338 1.535-.047.053c-2.975 3.413.369 4.235.369 4.235h4.325l9.795-11.382c2.11-1.938 4.277-1.202 4.277-1.202v-7.46C19.57 3.342 15.91 7.03 15.91 7.03"/>
        <path fill="#E1B2FF" d="M29.199 35.01c1.294 1.17 3.33 1.754 6.109 1.754h4.558v-.424c0-2.052-.492-5.341-4.09-5.341a4.71 4.71 0 0 1-.596-.034c-5.934-.358-7.924-5.88-7.924-5.88v4.471c0 2.465.647 4.283 1.943 5.454"/>
    </g>
</svg>
